# Blender v2.68 (sub 0) OBJ File: 'jake_table.blend'
# www.blender.org
o Cube
v 3.935971 -0.117440 -2.190126
v 3.935971 -0.117440 2.190126
v -3.935971 -0.117440 2.190126
v -3.935969 -0.117440 -2.190127
v 3.741942 0.129339 -1.989263
v 3.735968 0.117440 1.990128
v -3.735972 0.117440 1.990126
v -3.730001 0.129339 -1.989264
v -3.944310 0.674879 2.190126
v -3.944311 0.674877 -2.190128
v -3.710324 0.654408 1.990126
v -3.703341 0.665741 -1.989265
v 3.998464 0.679477 -2.190126
v 3.998464 0.679477 2.190127
v 3.769554 0.691379 -1.989263
v 3.763585 0.679475 1.990128
v 3.938012 0.732393 2.194359
v -3.933783 0.744820 2.240738
v 3.736581 0.671920 1.968665
v -3.735220 0.683714 2.012688
v 3.936742 0.639776 -2.178755
v -3.935193 0.648241 -2.180247
v 3.736745 0.680777 -1.947481
v -3.735194 0.688812 -1.948898
vn 0.000000 -1.000000 0.000000
vn -0.000000 0.999995 0.002990
vn 0.996939 -0.078179 0.000000
vn 0.000000 -0.038679 -0.999252
vn 0.693662 0.007302 -0.720263
vn -0.692852 -0.008601 0.721029
vn 0.089691 0.995965 0.002994
vn 0.998860 -0.047710 0.001356
vn -0.999945 -0.010527 -0.000000
vn 0.702733 0.007396 0.711415
vn 0.054609 0.998503 0.003069
vn -0.674374 0.052884 0.736493
vn -0.998794 0.049078 -0.001353
vn -0.684439 0.053673 -0.727092
vn -0.000000 0.965927 -0.258813
vn -0.000000 -0.004980 0.999988
vn 0.708164 0.001815 -0.706045
vn -0.730639 0.041855 -0.681480
vn 0.001092 0.984808 -0.173644
vn 0.000000 0.015016 -0.999887
vn -0.000000 -0.075553 0.997142
vn 0.712240 -0.011266 0.701846
vn -0.000000 0.999996 0.002990
vn -0.005824 0.039819 -0.999190
vn 0.639253 -0.031773 -0.768339
vn -0.750634 -0.054476 0.658468
vn 0.037887 0.999282 -0.000000
vn 0.998766 -0.049641 0.001611
vn -0.999945 -0.010524 0.000000
vn 0.647867 -0.030945 0.761125
vn -0.000008 1.000000 0.000000
vn -0.647981 0.031839 0.760991
vn -0.998794 0.049070 -0.001352
vn -0.658263 0.032340 -0.752093
vn -0.000000 0.965926 -0.258820
vn 0.005789 -0.058610 0.998264
vn 0.749319 -0.026440 -0.661681
vn -0.750265 0.027315 -0.660573
vn 0.001092 0.984808 -0.173645
vn 0.000203 0.012902 -0.999917
vn -0.000267 -0.071966 0.997407
vn 0.751946 -0.042757 0.657837
s off
f 1//1 2//1 3//1
f 5//2 8//2 6//2
f 2//3 1//3 13//3
f 6//4 7//4 19//4
f 8//5 4//5 10//5
f 4//6 8//6 22//6
f 9//7 11//7 12//7
f 7//8 8//8 11//8
f 4//9 3//9 10//9
f 3//10 7//10 9//10
f 13//11 15//11 16//11
f 6//12 2//12 14//12
f 5//13 6//13 16//13
f 1//14 5//14 13//14
f 17//15 19//15 20//15
f 3//16 2//16 17//16
f 2//17 6//17 17//17
f 7//18 3//18 18//18
f 23//19 21//19 22//19
f 1//20 4//20 21//20
f 8//21 5//21 23//21
f 5//22 1//22 21//22
f 4//1 1//1 3//1
f 8//23 7//23 6//23
f 14//3 2//3 13//3
f 7//24 20//24 19//24
f 12//25 8//25 10//25
f 8//26 24//26 22//26
f 10//27 9//27 12//27
f 8//28 12//28 11//28
f 3//29 9//29 10//29
f 7//30 11//30 9//30
f 14//31 13//31 16//31
f 16//32 6//32 14//32
f 15//33 5//33 16//33
f 5//34 15//34 13//34
f 18//35 17//35 20//35
f 18//36 3//36 17//36
f 6//37 19//37 17//37
f 20//38 7//38 18//38
f 24//39 23//39 22//39
f 4//40 22//40 21//40
f 24//41 8//41 23//41
f 23//42 5//42 21//42
