#Exported from google sketchup
mtllib Puck.mtl
v -0.031996 -0.000812 -0.004769
v -0.030870 -0.001229 0.011621
v -0.032511 -0.001060 0.003499
v -0.029358 -0.000502 -0.012620
v -0.029814 -0.000962 0.003316
v -0.029343 -0.000735 -0.004247
v -0.024779 -0.000151 -0.019518
v -0.026930 -0.000451 -0.011429
v -0.022740 -0.000130 -0.017740
v -0.018569 0.000217 -0.024994
v -0.017060 0.000207 -0.022749
v -0.011152 0.000577 -0.028675
v -0.010275 0.000536 -0.026116
v -0.003034 0.000904 -0.030309
v -0.002848 0.000835 -0.027611
v 0.005233 0.001176 -0.029786
v 0.004714 0.001084 -0.027132
v 0.011896 0.001266 -0.024712
v 0.013084 0.001375 -0.027140
v 0.018210 0.001368 -0.020516
v 0.019986 0.001487 -0.022553
v 0.023224 0.001384 -0.014829
v 0.025467 0.001504 -0.016336
v 0.026596 0.001312 -0.008039
v 0.029154 0.001425 -0.008914
v 0.028098 0.001157 -0.000610
v -0.027183 -0.001308 0.019043
v -0.028312 -0.001116 0.010746
v -0.024939 -0.001188 0.017535
v -0.021702 -0.001291 0.025259
v -0.019926 -0.001173 0.023222
v -0.014800 -0.001179 0.029846
v -0.013612 -0.001070 0.027418
v -0.006949 -0.000980 0.032492
v -0.006430 -0.000889 0.029839
v 0.001318 -0.000708 0.033015
v 0.001132 -0.000639 0.030317
v 0.008559 -0.000340 0.028822
v 0.009436 -0.000381 0.031381
v 0.015344 -0.000011 0.025456
v 0.016853 -0.000021 0.027701
v 0.021025 0.000326 0.020446
v 0.023063 0.000347 0.022224
v 0.025214 0.000647 0.014135
v 0.027643 0.000698 0.015326
v 0.027627 0.000930 0.006954
v 0.030280 0.001008 0.007475
v 0.030795 0.001256 -0.000793
v -0.010932 -0.005767 -0.028851
v -0.018349 -0.006127 -0.025171
v -0.002814 -0.005440 -0.030486
v 0.005453 -0.005168 -0.029962
v 0.013305 -0.004969 -0.027317
v 0.020206 -0.004857 -0.022729
v 0.025687 -0.004840 -0.016513
v 0.029374 -0.004919 -0.009091
v 0.031016 -0.005088 -0.000969
v 0.030500 -0.005336 0.007299
v 0.027863 -0.005646 0.015149
v 0.023283 -0.005997 0.022048
v 0.017073 -0.006365 0.027524
v 0.009656 -0.006725 0.031205
v 0.001538 -0.007052 0.032839
v -0.006729 -0.007324 0.032315
v -0.014580 -0.007523 0.029670
v -0.021482 -0.007635 0.025082
v -0.026962 -0.007652 0.018866
v -0.030649 -0.007573 0.011444
v -0.032291 -0.007404 0.003322
v -0.031776 -0.007156 -0.004946
v -0.029138 -0.006846 -0.012796
v -0.024559 -0.006495 -0.019695
# 72 elements
vt 0.000000 0.000000 0.0000
vt 0.000000 0.000000 0.0000
vt 0.000000 0.000000 0.0000
vt 0.000000 0.000000 0.0000
vt 0.000000 0.000000 0.0000
vt 0.000000 0.000000 0.0000
vt 0.000000 0.000000 0.0000
vt 0.000000 0.000000 0.0000
vt 0.000000 0.000000 0.0000
vt 0.000000 0.000000 0.0000
vt 0.000000 0.000000 0.0000
vt 0.000000 0.000000 0.0000
vt 0.000000 0.000000 0.0000
vt 0.000000 0.000000 0.0000
vt 0.000000 0.000000 0.0000
vt 0.000000 0.000000 0.0000
vt 0.000000 0.000000 0.0000
vt 0.000000 0.000000 0.0000
vt 0.000000 0.000000 0.0000
vt 0.000000 0.000000 0.0000
vt 0.000000 0.000000 0.0000
vt 0.000000 0.000000 0.0000
vt 0.000000 0.000000 0.0000
vt 0.000000 0.000000 0.0000
vt 0.000000 0.000000 0.0000
vt 0.000000 0.000000 0.0000
vt 0.000000 0.000000 0.0000
vt 0.000000 0.000000 0.0000
vt 0.000000 0.000000 0.0000
vt 0.000000 0.000000 0.0000
vt 0.000000 0.000000 0.0000
vt 0.000000 0.000000 0.0000
vt 0.000000 0.000000 0.0000
vt 0.000000 0.000000 0.0000
vt 0.000000 0.000000 0.0000
vt 0.000000 0.000000 0.0000
vt 0.000000 0.000000 0.0000
vt 0.000000 0.000000 0.0000
vt 0.000000 0.000000 0.0000
vt 0.000000 0.000000 0.0000
vt 0.000000 0.000000 0.0000
vt 0.000000 0.000000 0.0000
vt 0.000000 0.000000 0.0000
vt 0.000000 0.000000 0.0000
vt 0.000000 0.000000 0.0000
vt 0.000000 0.000000 0.0000
vt 0.000000 0.000000 0.0000
vt 0.000000 0.000000 0.0000
vt 0.000000 0.000000 0.0000
vt 0.000000 0.000000 0.0000
vt 0.000000 0.000000 0.0000
vt 0.000000 0.000000 0.0000
vt 0.000000 0.000000 0.0000
vt 0.000000 0.000000 0.0000
vt 0.000000 0.000000 0.0000
vt 0.000000 0.000000 0.0000
vt 0.000000 0.000000 0.0000
vt 0.000000 0.000000 0.0000
vt 0.000000 0.000000 0.0000
vt 0.000000 0.000000 0.0000
vt 0.000000 0.000000 0.0000
vt 0.000000 0.000000 0.0000
vt 0.000000 0.000000 0.0000
vt 0.000000 0.000000 0.0000
vt 0.000000 0.000000 0.0000
vt 0.000000 0.000000 0.0000
vt 0.000000 0.000000 0.0000
vt 0.000000 0.000000 0.0000
vt 0.000000 0.000000 0.0000
vt 0.000000 0.000000 0.0000
vt 0.000000 0.000000 0.0000
vt 0.000000 0.000000 0.0000
# 72 elements
vn -0.034669 0.999012 0.027810
vn -0.324255 0.015078 -0.945849
vn -0.557877 0.003743 -0.829915
vn -0.068536 0.025385 -0.997326
vn 0.191854 0.033962 -0.980836
vn 0.439169 0.040225 -0.897503
vn 0.656556 0.043747 -0.753008
vn 0.829199 0.044287 -0.557196
vn 0.945334 0.041809 -0.323412
vn 0.997046 0.036482 -0.067588
vn 0.980811 0.028669 0.192842
vn 0.897735 0.018902 0.440130
vn 0.753480 0.007847 0.657424
vn 0.557877 -0.003743 0.829915
vn 0.324255 -0.015078 0.945849
vn 0.068536 -0.025385 0.997326
vn -0.191854 -0.033962 0.980836
vn -0.439169 -0.040225 0.897503
vn -0.656556 -0.043747 0.753008
vn -0.829199 -0.044287 0.557196
vn -0.945334 -0.041809 0.323412
vn -0.997046 -0.036482 0.067588
vn -0.980811 -0.028669 -0.192842
vn -0.897735 -0.018902 -0.440130
vn -0.753480 -0.007847 -0.657424
# 25 elements
#  118 faces
usemtl __Color_009_
f 3/3/1 2/2/1 1/1/1
f 4/4/1 1/1/1 2/2/1
f 5/5/1 4/4/1 2/2/1
f 6/6/1 4/4/1 5/5/1
f 7/7/1 4/4/1 6/6/1
f 8/8/1 7/7/1 6/6/1
f 9/9/1 7/7/1 8/8/1
f 10/10/1 7/7/1 9/9/1
f 11/11/1 10/10/1 9/9/1
f 12/12/1 10/10/1 11/11/1
f 13/13/1 12/12/1 11/11/1
f 14/14/1 12/12/1 13/13/1
f 15/15/1 14/14/1 13/13/1
f 16/16/1 14/14/1 15/15/1
f 17/17/1 16/16/1 15/15/1
f 18/18/1 16/16/1 17/17/1
f 19/19/1 16/16/1 18/18/1
f 20/20/1 19/19/1 18/18/1
f 21/21/1 19/19/1 20/20/1
f 22/22/1 21/21/1 20/20/1
f 23/23/1 21/21/1 22/22/1
f 24/24/1 23/23/1 22/22/1
f 25/25/1 23/23/1 24/24/1
f 26/26/1 25/25/1 24/24/1
f 2/2/1 27/27/1 5/5/1
f 28/28/1 5/5/1 27/27/1
f 29/29/1 28/28/1 27/27/1
f 30/30/1 29/29/1 27/27/1
f 31/31/1 29/29/1 30/30/1
f 32/32/1 31/31/1 30/30/1
f 33/33/1 31/31/1 32/32/1
f 34/34/1 33/33/1 32/32/1
f 35/35/1 33/33/1 34/34/1
f 36/36/1 35/35/1 34/34/1
f 37/37/1 35/35/1 36/36/1
f 38/38/1 37/37/1 36/36/1
f 39/39/1 38/38/1 36/36/1
f 40/40/1 38/38/1 39/39/1
f 41/41/1 40/40/1 39/39/1
f 42/42/1 40/40/1 41/41/1
f 43/43/1 42/42/1 41/41/1
f 44/44/1 42/42/1 43/43/1
f 45/45/1 44/44/1 43/43/1
f 46/46/1 44/44/1 45/45/1
f 26/26/1 46/46/1 45/45/1
f 47/47/1 26/26/1 45/45/1
f 25/25/1 26/26/1 47/47/1
f 48/48/1 25/25/1 47/47/1
usemtl __Color_A06_
f 50/50/3 10/10/3 49/49/2
f 12/12/2 49/49/2 10/10/3
f 49/49/2 12/12/2 51/51/4
f 14/14/4 51/51/4 12/12/2
f 51/51/4 14/14/4 52/52/5
f 16/16/5 52/52/5 14/14/4
f 52/52/5 16/16/5 53/53/6
f 19/19/6 53/53/6 16/16/5
f 53/53/6 19/19/6 54/54/7
f 21/21/7 54/54/7 19/19/6
f 54/54/7 21/21/7 55/55/8
f 23/23/8 55/55/8 21/21/7
f 55/55/8 23/23/8 56/56/9
f 25/25/9 56/56/9 23/23/8
f 56/56/9 25/25/9 57/57/10
f 48/48/10 57/57/10 25/25/9
f 57/57/10 48/48/10 58/58/11
f 47/47/11 58/58/11 48/48/10
f 58/58/11 47/47/11 59/59/12
f 45/45/12 59/59/12 47/47/11
f 59/59/12 45/45/12 60/60/13
f 43/43/13 60/60/13 45/45/12
f 61/61/14 60/60/13 41/41/14
f 43/43/13 41/41/14 60/60/13
f 62/62/15 61/61/14 39/39/15
f 41/41/14 39/39/15 61/61/14
f 63/63/16 62/62/15 36/36/16
f 39/39/15 36/36/16 62/62/15
f 64/64/17 63/63/16 34/34/17
f 36/36/16 34/34/17 63/63/16
f 65/65/18 64/64/17 32/32/18
f 34/34/17 32/32/18 64/64/17
f 66/66/19 65/65/18 30/30/19
f 32/32/18 30/30/19 65/65/18
f 67/67/20 66/66/19 27/27/20
f 30/30/19 27/27/20 66/66/19
f 68/68/21 67/67/20 2/2/21
f 27/27/20 2/2/21 67/67/20
f 69/69/22 68/68/21 3/3/22
f 2/2/21 3/3/22 68/68/21
f 70/70/23 69/69/22 1/1/23
f 3/3/22 1/1/23 69/69/22
f 71/71/24 70/70/23 4/4/24
f 1/1/23 4/4/24 70/70/23
f 72/72/25 71/71/24 7/7/25
f 4/4/24 7/7/25 71/71/24
f 72/72/25 7/7/25 50/50/3
f 10/10/3 50/50/3 7/7/25
f 5/5/1 28/28/1 6/6/1
f 8/8/1 6/6/1 28/28/1
f 29/29/1 8/8/1 28/28/1
f 9/9/1 8/8/1 29/29/1
f 31/31/1 9/9/1 29/29/1
f 11/11/1 9/9/1 31/31/1
f 33/33/1 11/11/1 31/31/1
f 13/13/1 11/11/1 33/33/1
f 35/35/1 13/13/1 33/33/1
f 15/15/1 13/13/1 35/35/1
f 37/37/1 15/15/1 35/35/1
f 17/17/1 15/15/1 37/37/1
f 38/38/1 17/17/1 37/37/1
f 18/18/1 17/17/1 38/38/1
f 40/40/1 18/18/1 38/38/1
f 20/20/1 18/18/1 40/40/1
f 42/42/1 20/20/1 40/40/1
f 22/22/1 20/20/1 42/42/1
f 44/44/1 22/22/1 42/42/1
f 24/24/1 22/22/1 44/44/1
f 46/46/1 24/24/1 44/44/1
f 26/26/1 24/24/1 46/46/1