# File exported by Houdini 13.0.198.21 (www.sidefx.com)
# 82 points
# 360 vertices
# 90 primitives
# Bounds: [-0.0167417321, 0, -0.015922334] to [0.0167417321, 0.0340000018, 0.0159223322]
g 
v -6.01175609e-010 0.0340000018 -4.36779279e-010
v 1.03834485e-009 0 7.54401042e-010
v 0.00581434276 0.0329747759 0
v 0.00470390217 0.0329747759 -0.00341758505
v 0.00179673068 0.0329747759 -0.00552976923
v -0.00179673103 0.0329747759 -0.00552976876
v -0.00470390264 0.0329747759 -0.00341758458
v -0.00581434276 0.0329747759 5.08306008e-010
v -0.00470390217 0.0329747759 0.00341758574
v -0.00179673138 0.0329747759 0.00552976876
v 0.00179673149 0.0329747759 0.00552976876
v 0.00470390357 0.0329747759 0.00341758318
v 0.0109273903 0.0300227571 0
v 0.00884044543 0.0300227571 -0.0064229588
v 0.00337674911 0.0300227571 -0.0103925662
v -0.00337674981 0.0300227571 -0.0103925653
v -0.00884044543 0.0300227571 -0.00642295834
v -0.0109273903 0.0300227571 9.55302837e-010
v -0.00884044357 0.0300227571 0.0064229602
v -0.00337675028 0.0300227571 0.0103925653
v 0.00337675074 0.0300227571 0.0103925653
v 0.00884044729 0.0300227571 0.00642295601
v 0.014722432 0.0255000014 0
v 0.0119106974 0.0255000014 -0.00865362864
v 0.00454948144 0.0255000014 -0.0140018649
v -0.00454948237 0.0255000014 -0.014001864
v -0.0119106984 0.0255000014 -0.00865362771
v -0.014722432 0.0255000014 1.287076e-009
v -0.0119106974 0.0255000014 0.00865362957
v -0.0045494833 0.0255000014 0.014001864
v 0.0045494833 0.0255000014 0.014001864
v 0.0119107021 0.0255000014 0.00865362398
v 0.0167417321 0.0199520215 0
v 0.0135443462 0.0199520215 -0.00984054338
v 0.00517347921 0.0199520215 -0.015922334
v -0.0051734806 0.0199520215 -0.0159223322
v -0.0135443462 0.0199520215 -0.00984054245
v -0.0167417321 0.0199520215 1.46360868e-009
v -0.0135443453 0.0199520215 0.00984054524
v -0.00517348154 0.0199520215 0.0159223322
v 0.005173482 0.0199520215 0.0159223322
v 0.0135443499 0.0199520215 0.00984053779
v 0.0167417321 0.0140479822 0
v 0.0135443462 0.0140479822 -0.00984054338
v 0.00517347921 0.0140479822 -0.015922334
v -0.0051734806 0.0140479822 -0.0159223322
v -0.0135443462 0.0140479822 -0.00984054245
v -0.0167417321 0.0140479822 1.46360868e-009
v -0.0135443453 0.0140479822 0.00984054524
v -0.00517348154 0.0140479822 0.0159223322
v 0.005173482 0.0140479822 0.0159223322
v 0.0135443499 0.0140479822 0.00984053779
v 0.0147224339 0.00850000139 0
v 0.0119106984 0.00850000139 -0.00865362864
v 0.00454948191 0.00850000139 -0.0140018668
v -0.00454948237 0.00850000139 -0.0140018649
v -0.0119106993 0.00850000139 -0.00865362771
v -0.0147224339 0.00850000139 1.287076e-009
v -0.0119106974 0.00850000139 0.0086536305
v -0.0045494833 0.00850000139 0.0140018649
v 0.00454948377 0.00850000139 0.0140018649
v 0.011910703 0.00850000139 0.00865362491
v 0.0109273903 0.00397724565 0
v 0.00884044543 0.00397724565 -0.0064229588
v 0.00337674911 0.00397724565 -0.0103925662
v -0.00337674981 0.00397724565 -0.0103925653
v -0.00884044543 0.00397724565 -0.00642295834
v -0.0109273903 0.00397724565 9.55302837e-010
v -0.00884044357 0.00397724565 0.0064229602
v -0.00337675028 0.00397724565 0.0103925653
v 0.00337675074 0.00397724565 0.0103925653
v 0.00884044729 0.00397724565 0.00642295601
v 0.00581434276 0.00102522597 0
v 0.00470390217 0.00102522597 -0.00341758505
v 0.00179673068 0.00102522597 -0.00552976923
v -0.00179673103 0.00102522597 -0.00552976876
v -0.00470390264 0.00102522597 -0.00341758458
v -0.00581434276 0.00102522597 5.08306008e-010
v -0.00470390217 0.00102522597 0.00341758574
v -0.00179673138 0.00102522597 0.00552976876
v 0.00179673149 0.00102522597 0.00552976876
v 0.00470390357 0.00102522597 0.00341758318
vt 0.83123076 0.143146977 0
vt 0.911317348 0.143146977 0
vt 0.89602226 0.190220729 0
vt 0.83123076 0.143146977 0
vt 0.83123076 0.143146977 0
vt 0.89602226 0.190220729 0
vt 0.855978906 0.219313905 0
vt 0.83123076 0.143146977 0
vt 0.83123076 0.143146977 0
vt 0.855978906 0.219313905 0
vt 0.806482673 0.219313905 0
vt 0.83123076 0.143146977 0
vt 0.83123076 0.143146977 0
vt 0.806482673 0.219313905 0
vt 0.766439319 0.190220729 0
vt 0.83123076 0.143146977 0
vt 0.83123076 0.143146977 0
vt 0.766439319 0.190220729 0
vt 0.751144111 0.143146962 0
vt 0.83123076 0.143146977 0
vt 0.83123076 0.143146977 0
vt 0.751144111 0.143146962 0
vt 0.766439319 0.0960732177 0
vt 0.83123076 0.143146977 0
vt 0.83123076 0.143146977 0
vt 0.766439319 0.0960732177 0
vt 0.806482673 0.0669800565 0
vt 0.83123076 0.143146977 0
vt 0.83123076 0.143146977 0
vt 0.806482673 0.0669800565 0
vt 0.855978906 0.0669800565 0
vt 0.83123076 0.143146977 0
vt 0.83123076 0.143146977 0
vt 0.855978906 0.0669800565 0
vt 0.89602226 0.0960732549 0
vt 0.83123076 0.143146977 0
vt 0.83123076 0.143146977 0
vt 0.89602226 0.0960732549 0
vt 0.911317348 0.143146977 0
vt 0.83123076 0.143146977 0
vt 0.911317348 0.143146977 0
vt 0.981744409 0.143146977 0
vt 0.952998877 0.231616691 0
vt 0.89602226 0.190220729 0
vt 0.89602226 0.190220729 0
vt 0.952998877 0.231616691 0
vt 0.877742052 0.286293954 0
vt 0.855978906 0.219313905 0
vt 0.855978906 0.219313905 0
vt 0.877742052 0.286293954 0
vt 0.784719527 0.286293954 0
vt 0.806482673 0.219313905 0
vt 0.806482673 0.219313905 0
vt 0.784719527 0.286293954 0
vt 0.709462643 0.231616691 0
vt 0.766439319 0.190220729 0
vt 0.766439319 0.190220729 0
vt 0.709462643 0.231616691 0
vt 0.680717111 0.143146962 0
vt 0.751144111 0.143146962 0
vt 0.751144111 0.143146962 0
vt 0.680717111 0.143146962 0
vt 0.709462643 0.0546772592 0
vt 0.766439319 0.0960732177 0
vt 0.766439319 0.0960732177 0
vt 0.709462643 0.0546772592 0
vt 0.784719527 0 0
vt 0.806482673 0.0669800565 0
vt 0.806482673 0.0669800565 0
vt 0.784719527 0 0
vt 0.877742052 0 0
vt 0.855978906 0.0669800565 0
vt 0.855978906 0.0669800565 0
vt 0.877742052 0 0
vt 0.952998877 0.0546773151 0
vt 0.89602226 0.0960732549 0
vt 0.89602226 0.0960732549 0
vt 0.952998877 0.0546773151 0
vt 0.981744409 0.143146977 0
vt 0.911317348 0.143146977 0
vt 0.526918054 0.358750343 0
vt 0.526918054 0.296454012 0
vt 0.646112978 0.296454012 0
vt 0.615387797 0.358750343 0
vt 0.0647914335 0.735756278 0
vt 0.0225018449 0.673459947 0
vt 0.123895071 0.673459947 0
vt 0.140048265 0.735756278 0
vt 0.140048265 0.735756278 0
vt 0.123895071 0.673459947 0
vt 0.249224007 0.673459947 0
vt 0.233070821 0.735756278 0
vt 0.233070821 0.735756278 0
vt 0.249224007 0.673459947 0
vt 0.35061726 0.673459947 0
vt 0.308327675 0.735756278 0
vt 0.438448399 0.735756278 0
vt 0.407723218 0.673459947 0
vt 0.526918113 0.673459947 0
vt 0.526918113 0.735756278 0
vt 0.526918113 0.735756278 0
vt 0.526918113 0.673459947 0
vt 0.646113038 0.673459947 0
vt 0.615387797 0.735756278 0
vt 0.064791441 0.358750343 0
vt 0.0225018319 0.296454012 0
vt 0.123895049 0.296454012 0
vt 0.140048236 0.358750343 0
vt 0.140048236 0.358750343 0
vt 0.123895049 0.296454012 0
vt 0.249224007 0.296454012 0
vt 0.233070821 0.358750343 0
vt 0.233070821 0.358750343 0
vt 0.249224007 0.296454012 0
vt 0.35061729 0.296454012 0
vt 0.308327675 0.358750343 0
vt 0.438448399 0.358750343 0
vt 0.407723218 0.296454012 0
vt 0.526918054 0.296454012 0
vt 0.526918054 0.358750343 0
vt 0.526918054 0.296454012 0
vt 0.526918054 0.220036224 0
vt 0.662461519 0.220036224 0
vt 0.646112978 0.296454012 0
vt 0.0225018449 0.673459947 0
vt 0 0.597042143 0
vt 0.115300149 0.597042143 0
vt 0.123895071 0.673459947 0
vt 0.123895071 0.673459947 0
vt 0.115300149 0.597042143 0
vt 0.257818967 0.597042143 0
vt 0.249224007 0.673459947 0
vt 0.249224007 0.673459947 0
vt 0.257818967 0.597042143 0
vt 0.373119086 0.597042143 0
vt 0.35061726 0.673459947 0
vt 0.407723218 0.673459947 0
vt 0.391374677 0.597042143 0
vt 0.526918113 0.597042143 0
vt 0.526918113 0.673459947 0
vt 0.526918113 0.673459947 0
vt 0.526918113 0.597042143 0
vt 0.662461579 0.597042143 0
vt 0.646113038 0.673459947 0
vt 0.0225018319 0.296454012 0
vt 0 0.220036224 0
vt 0.115300097 0.220036224 0
vt 0.123895049 0.296454012 0
vt 0.123895049 0.296454012 0
vt 0.115300097 0.220036224 0
vt 0.257818967 0.220036224 0
vt 0.249224007 0.296454012 0
vt 0.249224007 0.296454012 0
vt 0.257818967 0.220036224 0
vt 0.373119116 0.220036224 0
vt 0.35061729 0.296454012 0
vt 0.407723218 0.296454012 0
vt 0.391374707 0.220036224 0
vt 0.526918054 0.220036224 0
vt 0.526918054 0.296454012 0
vt 0.526918054 0.220036224 0
vt 0.526918054 0.13871412 0
vt 0.662461519 0.13871412 0
vt 0.662461519 0.220036224 0
vt 0 0.597042143 0
vt 0 0.515720069 0
vt 0.115300149 0.515720069 0
vt 0.115300149 0.597042143 0
vt 0.115300149 0.597042143 0
vt 0.115300149 0.515720069 0
vt 0.257818967 0.515720069 0
vt 0.257818967 0.597042143 0
vt 0.257818967 0.597042143 0
vt 0.257818967 0.515720069 0
vt 0.373119086 0.515720069 0
vt 0.373119086 0.597042143 0
vt 0.391374677 0.597042143 0
vt 0.391374677 0.515720069 0
vt 0.526918113 0.515720069 0
vt 0.526918113 0.597042143 0
vt 0.526918113 0.597042143 0
vt 0.526918113 0.515720069 0
vt 0.662461579 0.515720069 0
vt 0.662461579 0.597042143 0
vt 0 0.220036224 0
vt 0 0.13871412 0
vt 0.115300097 0.13871412 0
vt 0.115300097 0.220036224 0
vt 0.115300097 0.220036224 0
vt 0.115300097 0.13871412 0
vt 0.257818967 0.13871412 0
vt 0.257818967 0.220036224 0
vt 0.257818967 0.220036224 0
vt 0.257818967 0.13871412 0
vt 0.373119116 0.13871412 0
vt 0.373119116 0.220036224 0
vt 0.391374707 0.220036224 0
vt 0.391374707 0.13871412 0
vt 0.526918054 0.13871412 0
vt 0.526918054 0.220036224 0
vt 0.526918054 0.13871412 0
vt 0.526918054 0.0622963421 0
vt 0.646112978 0.0622963421 0
vt 0.662461519 0.13871412 0
vt 0 0.515720069 0
vt 0.0225018319 0.439302295 0
vt 0.123895071 0.439302295 0
vt 0.115300149 0.515720069 0
vt 0.115300149 0.515720069 0
vt 0.123895071 0.439302295 0
vt 0.249224007 0.439302295 0
vt 0.257818967 0.515720069 0
vt 0.257818967 0.515720069 0
vt 0.249224007 0.439302295 0
vt 0.35061729 0.439302295 0
vt 0.373119086 0.515720069 0
vt 0.391374677 0.515720069 0
vt 0.407723218 0.439302295 0
vt 0.526918113 0.439302295 0
vt 0.526918113 0.515720069 0
vt 0.526918113 0.515720069 0
vt 0.526918113 0.439302295 0
vt 0.646113038 0.439302295 0
vt 0.662461579 0.515720069 0
vt 0 0.13871412 0
vt 0.0225018319 0.0622963421 0
vt 0.123895049 0.0622963421 0
vt 0.115300097 0.13871412 0
vt 0.115300097 0.13871412 0
vt 0.123895049 0.0622963421 0
vt 0.249224007 0.0622963421 0
vt 0.257818967 0.13871412 0
vt 0.257818967 0.13871412 0
vt 0.249224007 0.0622963421 0
vt 0.350617319 0.0622963421 0
vt 0.373119116 0.13871412 0
vt 0.391374707 0.13871412 0
vt 0.407723188 0.0622963421 0
vt 0.526918054 0.0622963421 0
vt 0.526918054 0.13871412 0
vt 0.526918054 0.0622963421 0
vt 0.526918054 0 0
vt 0.615387797 0 0
vt 0.646112978 0.0622963421 0
vt 0.0225018319 0.439302295 0
vt 0.0647914335 0.377005935 0
vt 0.140048265 0.377005935 0
vt 0.123895071 0.439302295 0
vt 0.123895071 0.439302295 0
vt 0.140048265 0.377005935 0
vt 0.233070821 0.377005935 0
vt 0.249224007 0.439302295 0
vt 0.249224007 0.439302295 0
vt 0.233070821 0.377005935 0
vt 0.308327675 0.377005935 0
vt 0.35061729 0.439302295 0
vt 0.407723218 0.439302295 0
vt 0.438448399 0.377005935 0
vt 0.526918113 0.377005935 0
vt 0.526918113 0.439302295 0
vt 0.526918113 0.439302295 0
vt 0.526918113 0.377005935 0
vt 0.615387797 0.377005935 0
vt 0.646113038 0.439302295 0
vt 0.0225018319 0.0622963421 0
vt 0.064791441 0 0
vt 0.140048236 0 0
vt 0.123895049 0.0622963421 0
vt 0.123895049 0.0622963421 0
vt 0.140048236 0 0
vt 0.233070821 0 0
vt 0.249224007 0.0622963421 0
vt 0.249224007 0.0622963421 0
vt 0.233070821 0 0
vt 0.308327675 0 0
vt 0.350617319 0.0622963421 0
vt 0.407723188 0.0622963421 0
vt 0.438448399 0 0
vt 0.526918054 0 0
vt 0.526918054 0.0622963421 0
vt 0.981744409 0.447696537 0
vt 0.911317348 0.447696537 0
vt 0.89602226 0.400622785 0
vt 0.952998877 0.359226823 0
vt 0.952998877 0.359226823 0
vt 0.89602226 0.400622785 0
vt 0.855978906 0.371529609 0
vt 0.877742052 0.304549545 0
vt 0.877742052 0.304549545 0
vt 0.855978906 0.371529609 0
vt 0.806482673 0.371529609 0
vt 0.784719527 0.304549545 0
vt 0.784719527 0.304549545 0
vt 0.806482673 0.371529609 0
vt 0.766439319 0.400622785 0
vt 0.709462643 0.359226823 0
vt 0.709462643 0.359226823 0
vt 0.766439319 0.400622785 0
vt 0.751144111 0.447696537 0
vt 0.680717111 0.447696537 0
vt 0.680717111 0.447696537 0
vt 0.751144111 0.447696537 0
vt 0.766439319 0.494770288 0
vt 0.709462643 0.536166251 0
vt 0.709462643 0.536166251 0
vt 0.766439319 0.494770288 0
vt 0.806482673 0.523863435 0
vt 0.784719527 0.590843499 0
vt 0.784719527 0.590843499 0
vt 0.806482673 0.523863435 0
vt 0.855978906 0.523863435 0
vt 0.877742052 0.590843499 0
vt 0.877742052 0.590843499 0
vt 0.855978906 0.523863435 0
vt 0.89602226 0.494770288 0
vt 0.952998877 0.536166191 0
vt 0.952998877 0.536166191 0
vt 0.89602226 0.494770288 0
vt 0.911317348 0.447696537 0
vt 0.981744409 0.447696537 0
vt 0.911317348 0.447696537 0
vt 0.83123076 0.447696537 0
vt 0.83123076 0.447696537 0
vt 0.89602226 0.400622785 0
vt 0.89602226 0.400622785 0
vt 0.83123076 0.447696537 0
vt 0.83123076 0.447696537 0
vt 0.855978906 0.371529609 0
vt 0.855978906 0.371529609 0
vt 0.83123076 0.447696537 0
vt 0.83123076 0.447696537 0
vt 0.806482673 0.371529609 0
vt 0.806482673 0.371529609 0
vt 0.83123076 0.447696537 0
vt 0.83123076 0.447696537 0
vt 0.766439319 0.400622785 0
vt 0.766439319 0.400622785 0
vt 0.83123076 0.447696537 0
vt 0.83123076 0.447696537 0
vt 0.751144111 0.447696537 0
vt 0.751144111 0.447696537 0
vt 0.83123076 0.447696537 0
vt 0.83123076 0.447696537 0
vt 0.766439319 0.494770288 0
vt 0.766439319 0.494770288 0
vt 0.83123076 0.447696537 0
vt 0.83123076 0.447696537 0
vt 0.806482673 0.523863435 0
vt 0.806482673 0.523863435 0
vt 0.83123076 0.447696537 0
vt 0.83123076 0.447696537 0
vt 0.855978906 0.523863435 0
vt 0.855978906 0.523863435 0
vt 0.83123076 0.447696537 0
vt 0.83123076 0.447696537 0
vt 0.89602226 0.494770288 0
vt 0.89602226 0.494770288 0
vt 0.83123076 0.447696537 0
vt 0.83123076 0.447696537 0
vt 0.911317348 0.447696537 0
vn 1.51551005e-009 1 -1.87165497e-007
vn 2.57636703e-008 -1 2.34904061e-008
vn 0.3410725 0.940036952 6.47774314e-008
vn 0.275933504 0.940037131 -0.200477242
vn 0.105397157 0.940036952 -0.324379385
vn -0.105397239 0.940036893 -0.324379444
vn -0.275933444 0.940036952 -0.200477257
vn -0.3410725 0.940036952 3.8104373e-009
vn -0.275933504 0.940037072 0.200477064
vn -0.10539721 0.940037072 0.324379027
vn 0.105397239 0.940037131 0.324378997
vn 0.275933504 0.940037072 0.200477049
vn 0.641636848 0.767008603 -1.70059081e-007
vn 0.519095182 0.767008543 -0.377144754
vn 0.198276654 0.767008543 -0.610233009
vn -0.198276758 0.767008662 -0.61023289
vn -0.519095182 0.767008543 -0.377144635
vn -0.641636848 0.767008543 5.79746846e-008
vn -0.519095123 0.767008722 0.377144635
vn -0.198276699 0.767008543 0.610232949
vn 0.198276758 0.767008483 0.610233009
vn 0.519095182 0.767008543 0.377144545
vn 0.865385115 0.501107395 -1.17793576e-007
vn 0.70011127 0.501107454 -0.508660495
vn 0.267418712 0.501107574 -0.823030055
vn -0.267418712 0.501107454 -0.823030114
vn -0.70011121 0.501107454 -0.508660555
vn -0.865385115 0.501107514 1.33499384e-007
vn -0.700111091 0.501107454 0.508660734
vn -0.267418623 0.501107395 0.823030174
vn 0.267418772 0.501107395 0.823030174
vn 0.700111389 0.501107395 0.508660495
vn 0.984721601 0.174135745 -4.75950905e-008
vn 0.796656549 0.174135849 -0.578804791
vn 0.304295659 0.174135894 -0.936525881
vn -0.304295719 0.174135834 -0.936525881
vn -0.796656549 0.174135923 -0.57880491
vn -0.984721661 0.174135908 9.51901882e-008
vn -0.79665637 0.174135834 0.57880491
vn -0.304295599 0.174135834 0.936525941
vn 0.304295808 0.174135834 0.936525881
vn 0.796656668 0.174135745 0.578804731
vn 0.984721601 -0.17413564 -1.11055201e-007
vn 0.796656549 -0.174135745 -0.578804851
vn 0.304295629 -0.174135715 -0.936525941
vn -0.304295778 -0.1741357 -0.936525881
vn -0.796656549 -0.174135774 -0.578804791
vn -0.984721601 -0.17413567 7.1392634e-008
vn -0.796656549 -0.174135685 0.57880491
vn -0.304295719 -0.174135774 0.936525881
vn 0.304295778 -0.174135685 0.936525881
vn 0.796656668 -0.174135655 0.578804672
vn 0.865385115 -0.501107395 -1.13867124e-007
vn 0.70011127 -0.501107454 -0.508660555
vn 0.267418683 -0.501107514 -0.823030174
vn -0.267418832 -0.501107395 -0.823030174
vn -0.70011133 -0.501107454 -0.508660614
vn -0.865385115 -0.501107395 6.2823247e-008
vn -0.70011127 -0.501107454 0.508660674
vn -0.267418712 -0.501107395 0.823030174
vn 0.267418772 -0.501107395 0.823030174
vn 0.700111389 -0.501107454 0.508660436
vn 0.641636789 -0.767008603 -8.88945166e-008
vn 0.519095182 -0.767008662 -0.377144635
vn 0.198276684 -0.767008722 -0.61023289
vn -0.198276758 -0.767008543 -0.61023289
vn -0.519095182 -0.767008543 -0.377144665
vn -0.641636848 -0.767008662 1.93248972e-008
vn -0.519095063 -0.767008722 0.377144724
vn -0.198276699 -0.767008662 0.610232949
vn 0.198276758 -0.767008543 0.610232949
vn 0.519095182 -0.767008603 0.377144516
vn 0.341072559 -0.940036893 -3.04834984e-008
vn 0.275933564 -0.940037072 -0.200477421
vn 0.105397195 -0.940036952 -0.324379265
vn -0.105397254 -0.940036952 -0.324379265
vn -0.275933534 -0.940037072 -0.200477406
vn -0.341072589 -0.940037072 1.71469718e-008
vn -0.275933444 -0.940036893 0.200477421
vn -0.105397224 -0.940036952 0.324379355
vn 0.105397269 -0.940036952 0.324379355
vn 0.275933534 -0.940036893 0.200477362
g 
f 1/1/1 3/2/3 4/3/4 1/4/1
f 1/5/1 4/6/4 5/7/5 1/8/1
f 1/9/1 5/10/5 6/11/6 1/12/1
f 1/13/1 6/14/6 7/15/7 1/16/1
f 1/17/1 7/18/7 8/19/8 1/20/1
f 1/21/1 8/22/8 9/23/9 1/24/1
f 1/25/1 9/26/9 10/27/10 1/28/1
f 1/29/1 10/30/10 11/31/11 1/32/1
f 1/33/1 11/34/11 12/35/12 1/36/1
f 1/37/1 12/38/12 3/39/3 1/40/1
f 3/41/3 13/42/13 14/43/14 4/44/4
f 4/45/4 14/46/14 15/47/15 5/48/5
f 5/49/5 15/50/15 16/51/16 6/52/6
f 6/53/6 16/54/16 17/55/17 7/56/7
f 7/57/7 17/58/17 18/59/18 8/60/8
f 8/61/8 18/62/18 19/63/19 9/64/9
f 9/65/9 19/66/19 20/67/20 10/68/10
f 10/69/10 20/70/20 21/71/21 11/72/11
f 11/73/11 21/74/21 22/75/22 12/76/12
f 12/77/12 22/78/22 13/79/13 3/80/3
f 13/81/13 23/82/23 24/83/24 14/84/14
f 14/85/14 24/86/24 25/87/25 15/88/15
f 15/89/15 25/90/25 26/91/26 16/92/16
f 16/93/16 26/94/26 27/95/27 17/96/17
f 17/97/17 27/98/27 28/99/28 18/100/18
f 18/101/18 28/102/28 29/103/29 19/104/19
f 19/105/19 29/106/29 30/107/30 20/108/20
f 20/109/20 30/110/30 31/111/31 21/112/21
f 21/113/21 31/114/31 32/115/32 22/116/22
f 22/117/22 32/118/32 23/119/23 13/120/13
f 23/121/23 33/122/33 34/123/34 24/124/24
f 24/125/24 34/126/34 35/127/35 25/128/25
f 25/129/25 35/130/35 36/131/36 26/132/26
f 26/133/26 36/134/36 37/135/37 27/136/27
f 27/137/27 37/138/37 38/139/38 28/140/28
f 28/141/28 38/142/38 39/143/39 29/144/29
f 29/145/29 39/146/39 40/147/40 30/148/30
f 30/149/30 40/150/40 41/151/41 31/152/31
f 31/153/31 41/154/41 42/155/42 32/156/32
f 32/157/32 42/158/42 33/159/33 23/160/23
f 33/161/33 43/162/43 44/163/44 34/164/34
f 34/165/34 44/166/44 45/167/45 35/168/35
f 35/169/35 45/170/45 46/171/46 36/172/36
f 36/173/36 46/174/46 47/175/47 37/176/37
f 37/177/37 47/178/47 48/179/48 38/180/38
f 38/181/38 48/182/48 49/183/49 39/184/39
f 39/185/39 49/186/49 50/187/50 40/188/40
f 40/189/40 50/190/50 51/191/51 41/192/41
f 41/193/41 51/194/51 52/195/52 42/196/42
f 42/197/42 52/198/52 43/199/43 33/200/33
f 43/201/43 53/202/53 54/203/54 44/204/44
f 44/205/44 54/206/54 55/207/55 45/208/45
f 45/209/45 55/210/55 56/211/56 46/212/46
f 46/213/46 56/214/56 57/215/57 47/216/47
f 47/217/47 57/218/57 58/219/58 48/220/48
f 48/221/48 58/222/58 59/223/59 49/224/49
f 49/225/49 59/226/59 60/227/60 50/228/50
f 50/229/50 60/230/60 61/231/61 51/232/51
f 51/233/51 61/234/61 62/235/62 52/236/52
f 52/237/52 62/238/62 53/239/53 43/240/43
f 53/241/53 63/242/63 64/243/64 54/244/54
f 54/245/54 64/246/64 65/247/65 55/248/55
f 55/249/55 65/250/65 66/251/66 56/252/56
f 56/253/56 66/254/66 67/255/67 57/256/57
f 57/257/57 67/258/67 68/259/68 58/260/58
f 58/261/58 68/262/68 69/263/69 59/264/59
f 59/265/59 69/266/69 70/267/70 60/268/60
f 60/269/60 70/270/70 71/271/71 61/272/61
f 61/273/61 71/274/71 72/275/72 62/276/62
f 62/277/62 72/278/72 63/279/63 53/280/53
f 63/281/63 73/282/73 74/283/74 64/284/64
f 64/285/64 74/286/74 75/287/75 65/288/65
f 65/289/65 75/290/75 76/291/76 66/292/66
f 66/293/66 76/294/76 77/295/77 67/296/67
f 67/297/67 77/298/77 78/299/78 68/300/68
f 68/301/68 78/302/78 79/303/79 69/304/69
f 69/305/69 79/306/79 80/307/80 70/308/70
f 70/309/70 80/310/80 81/311/81 71/312/71
f 71/313/71 81/314/81 82/315/82 72/316/72
f 72/317/72 82/318/82 73/319/73 63/320/63
f 73/321/73 2/322/2 2/323/2 74/324/74
f 74/325/74 2/326/2 2/327/2 75/328/75
f 75/329/75 2/330/2 2/331/2 76/332/76
f 76/333/76 2/334/2 2/335/2 77/336/77
f 77/337/77 2/338/2 2/339/2 78/340/78
f 78/341/78 2/342/2 2/343/2 79/344/79
f 79/345/79 2/346/2 2/347/2 80/348/80
f 80/349/80 2/350/2 2/351/2 81/352/81
f 81/353/81 2/354/2 2/355/2 82/356/82
f 82/357/82 2/358/2 2/359/2 73/360/73
